<svg xmlns="http://www.w3.org/2000/svg" xmlns:xlink="http://www.w3.org/1999/xlink" version="1.1" width="256" height="256" viewBox="0 0 256 256" xml:space="preserve">

<defs>
</defs>
<g style="stroke: none; stroke-width: 0; stroke-dasharray: none; stroke-linecap: butt; stroke-linejoin: miter; stroke-miterlimit: 10; fill: none; fill-rule: nonzero; opacity: 1;" transform="translate(1.4065934065934016 1.4065934065934016) scale(2.81 2.81)" >
	<path d="M 83.419 77.071 h -8.77 c -1.65 -4.528 -6.022 -7.629 -10.887 -7.629 c -1.628 0 -3.244 0.347 -4.724 1.008 c -2.787 -4.642 -7.646 -7.59 -13.038 -7.917 v -6.687 c 1.918 -3.803 5.144 -6.962 9.584 -9.415 c 0.169 0.456 0.345 0.901 0.534 1.321 c 1.246 2.755 3.679 4.696 6.677 5.324 c 0.675 0.142 1.351 0.212 2.019 0.212 c 2.322 0 4.546 -0.843 6.311 -2.43 c 4 -3.599 7.258 -8.27 9.959 -14.277 c 0.109 -0.243 0.117 -0.52 0.021 -0.769 c -0.096 -0.249 -0.287 -0.449 -0.531 -0.557 c -6.012 -2.641 -11.543 -3.925 -16.907 -3.925 c -0.017 0 -0.035 0 -0.053 0 c -3.055 0.005 -5.85 1.439 -7.669 3.934 c -1.804 2.475 -2.31 5.546 -1.389 8.426 c 0.091 0.285 0.195 0.574 0.301 0.859 c -3.74 2.027 -6.713 4.524 -8.857 7.469 V 24.075 c 0.3 -0.002 0.596 -0.008 0.882 -0.025 c 2.645 -0.153 4.997 -1.532 6.453 -3.786 c 1.468 -2.271 1.761 -5.007 0.804 -7.506 c -1.662 -4.346 -4.42 -8.424 -8.429 -12.469 c -0.375 -0.379 -1.045 -0.379 -1.421 0 c -4.009 4.045 -6.766 8.124 -8.429 12.469 c -0.957 2.499 -0.664 5.235 0.804 7.506 c 1.456 2.253 3.808 3.633 6.453 3.786 c 0.289 0.017 0.587 0.025 0.882 0.027 v 20.182 c -1.882 -2.587 -4.403 -4.828 -7.515 -6.706 c 0.3 -0.688 0.56 -1.368 0.769 -2.022 c 0.921 -2.88 0.414 -5.951 -1.39 -8.426 c -1.818 -2.495 -4.613 -3.929 -7.669 -3.934 c -0.018 0 -0.035 0 -0.053 0 c -5.363 0 -10.894 1.284 -16.907 3.925 c -0.244 0.107 -0.435 0.308 -0.531 0.557 c -0.096 0.249 -0.088 0.526 0.021 0.769 c 2.703 6.009 5.961 10.679 9.96 14.277 c 1.764 1.588 3.99 2.43 6.312 2.43 c 0.667 0 1.342 -0.069 2.016 -0.21 c 2.998 -0.628 5.432 -2.569 6.679 -5.325 c 0.021 -0.047 0.04 -0.097 0.061 -0.145 c 3.752 2.326 6.527 5.224 8.247 8.637 v 14.448 c -5.392 0.326 -10.25 3.275 -13.037 7.917 c -1.481 -0.661 -3.096 -1.008 -4.725 -1.008 c -4.864 0 -9.237 3.101 -10.887 7.629 h -8.77 c -1.75 0 -3.174 1.423 -3.174 3.173 v 6.589 c 0 1.75 1.424 3.173 3.174 3.173 h 76.838 c 1.75 0 3.174 -1.423 3.174 -3.173 v -6.589 C 86.593 78.494 85.169 77.071 83.419 77.071 z M 57.561 36.441 c 1.439 -1.973 3.646 -3.108 6.056 -3.112 c 0.017 0 0.032 0 0.049 0 c 4.804 0 9.777 1.099 15.167 3.355 c -2.497 5.304 -5.464 9.461 -9.047 12.686 c -1.791 1.612 -4.185 2.251 -6.581 1.747 c -2.367 -0.496 -4.286 -2.024 -5.265 -4.19 c -0.263 -0.584 -0.508 -1.215 -0.762 -1.967 c -0.28 -0.638 -0.522 -1.271 -0.718 -1.882 C 55.736 40.814 56.137 38.395 57.561 36.441 z M 28.603 42.96 c -2.391 0.5 -4.788 -0.137 -6.579 -1.748 c -3.583 -3.224 -6.549 -7.38 -9.048 -12.686 c 5.391 -2.256 10.363 -3.354 15.167 -3.354 c 0.017 0 0.033 0 0.05 0 c 2.41 0.004 4.617 1.138 6.055 3.111 c 1.424 1.954 1.825 4.374 1.101 6.64 c -0.193 0.605 -0.435 1.238 -0.751 1.969 c -0.222 0.668 -0.467 1.3 -0.728 1.879 C 32.889 40.936 30.969 42.464 28.603 42.96 z M 38.344 19.179 c -1.118 -1.729 -1.342 -3.808 -0.616 -5.705 C 39.191 9.652 41.574 6.031 45 2.43 c 3.426 3.601 5.808 7.222 7.271 11.044 c 0.726 1.897 0.501 3.977 -0.616 5.705 c -1.106 1.711 -2.887 2.759 -4.888 2.874 c -0.524 0.031 -1.09 0.031 -1.756 0.006 c -0.004 0 -0.007 -0.002 -0.011 -0.002 c -0.003 0 -0.006 0.002 -0.009 0.002 c -0.013 0 -0.024 0 -0.038 -0.001 c -0.6 0.028 -1.179 0.026 -1.721 -0.005 C 41.232 21.938 39.45 20.89 38.344 19.179 z M 84.593 86.833 c 0 0.647 -0.526 1.173 -1.174 1.173 H 6.581 c -0.647 0 -1.173 -0.526 -1.173 -1.173 v -6.589 c 0 -0.647 0.526 -1.173 1.173 -1.173 h 9.494 c 0.445 0 0.836 -0.294 0.96 -0.721 c 1.184 -4.067 4.968 -6.908 9.202 -6.908 c 1.623 0 3.229 0.416 4.645 1.202 c 0.236 0.13 0.513 0.161 0.773 0.084 c 0.258 -0.077 0.474 -0.256 0.599 -0.495 c 2.494 -4.769 7.377 -7.732 12.745 -7.732 s 10.251 2.963 12.746 7.732 c 0.124 0.239 0.341 0.418 0.599 0.495 c 0.256 0.077 0.537 0.047 0.773 -0.084 c 1.416 -0.786 3.023 -1.202 4.645 -1.202 c 4.235 0 8.02 2.841 9.202 6.908 c 0.124 0.427 0.516 0.721 0.96 0.721 h 9.494 c 0.648 0 1.174 0.526 1.174 1.173 V 86.833 z" style="stroke: none; stroke-width: 1; stroke-dasharray: none; stroke-linecap: butt; stroke-linejoin: miter; stroke-miterlimit: 10; fill: rgb(0,0,0); fill-rule: nonzero; opacity: 1;" transform=" matrix(1 0 0 1 0 0) " stroke-linecap="round" />
</g>
</svg>
