<svg xmlns="http://www.w3.org/2000/svg" xmlns:xlink="http://www.w3.org/1999/xlink" version="1.1" width="256" height="256" viewBox="0 0 256 256" xml:space="preserve">

<defs>
</defs>
<g style="stroke: none; stroke-width: 0; stroke-dasharray: none; stroke-linecap: butt; stroke-linejoin: miter; stroke-miterlimit: 10; fill: none; fill-rule: nonzero; opacity: 1;" transform="translate(1.4065934065934016 1.4065934065934016) scale(2.81 2.81)" >
	<path d="M 17.895 53.281 h -2.316 c -0.313 0 -0.62 -0.025 -0.924 -0.061 c -0.091 -0.011 -0.18 -0.027 -0.269 -0.041 c -0.218 -0.034 -0.433 -0.077 -0.645 -0.13 c -0.09 -0.022 -0.181 -0.044 -0.27 -0.069 c -0.247 -0.071 -0.488 -0.153 -0.724 -0.247 c -0.038 -0.015 -0.079 -0.027 -0.117 -0.043 c -0.273 -0.114 -0.536 -0.246 -0.792 -0.389 c -0.02 -0.011 -0.041 -0.019 -0.061 -0.03 v 25.046 h 6.117 V 53.281 z" style="stroke: none; stroke-width: 1; stroke-dasharray: none; stroke-linecap: butt; stroke-linejoin: miter; stroke-miterlimit: 10; fill: rgb(0,0,0); fill-rule: nonzero; opacity: 1;" transform=" matrix(1 0 0 1 0 0) " stroke-linecap="round" />
	<polygon points="9.85,81.18 7.9,81.18 7.9,90 23.51,90 23.51,81.18 19.83,81.18 " style="stroke: none; stroke-width: 1; stroke-dasharray: none; stroke-linecap: butt; stroke-linejoin: miter; stroke-miterlimit: 10; fill: rgb(0,0,0); fill-rule: nonzero; opacity: 1;" transform="  matrix(1 0 0 1 0 0) "/>
	<polygon points="29.14,68.64 27.37,68.64 27.37,79.25 27.37,90 42.98,90 42.98,68.64 39.12,68.64 " style="stroke: none; stroke-width: 1; stroke-dasharray: none; stroke-linecap: butt; stroke-linejoin: miter; stroke-miterlimit: 10; fill: rgb(0,0,0); fill-rule: nonzero; opacity: 1;" transform="  matrix(1 0 0 1 0 0) "/>
	<path d="M 78.686 13.618 l 3.416 -4.39 H 71.025 v 11.726 h 11.078 l -3.416 -4.39 C 78.022 15.712 78.022 14.471 78.686 13.618 z" style="stroke: none; stroke-width: 1; stroke-dasharray: none; stroke-linecap: butt; stroke-linejoin: miter; stroke-miterlimit: 10; fill: rgb(0,0,0); fill-rule: nonzero; opacity: 1;" transform=" matrix(1 0 0 1 0 0) " stroke-linecap="round" />
	<path d="M 21.729 15.696 c 3.012 0 5.462 -2.45 5.462 -5.462 V 6.936 c 0 -3.012 -2.45 -5.462 -5.462 -5.462 s -5.462 2.45 -5.462 5.462 v 3.298 C 16.267 13.246 18.718 15.696 21.729 15.696 z" style="stroke: none; stroke-width: 1; stroke-dasharray: none; stroke-linecap: butt; stroke-linejoin: miter; stroke-miterlimit: 10; fill: rgb(0,0,0); fill-rule: nonzero; opacity: 1;" transform=" matrix(1 0 0 1 0 0) " stroke-linecap="round" />
	<path d="M 56.863 2.209 c 0 -1.22 -0.989 -2.209 -2.209 -2.209 s -2.209 0.989 -2.209 2.209 v 16.784 H 17.295 c -3.047 0 -5.517 2.47 -5.517 5.517 v 21.106 c 0 2.099 1.701 3.8 3.8 3.8 h 4.249 h 6.88 c 2.409 0 4.361 1.953 4.361 4.361 v 10.999 h 6.117 V 45.211 c 0 -1.056 -0.856 -1.912 -1.912 -1.912 h -3.999 c -2.941 0 -5.325 -2.384 -5.325 -5.325 V 27.622 c 0 -1.724 1.398 -3.122 3.122 -3.122 h 23.375 v 31.599 H 46.85 v 10.609 V 90 h 15.61 V 56.099 h -5.597 v -41.06 h 10.857 V 3.313 H 56.863 V 2.209 z" style="stroke: none; stroke-width: 1; stroke-dasharray: none; stroke-linecap: butt; stroke-linejoin: miter; stroke-miterlimit: 10; fill: rgb(0,0,0); fill-rule: nonzero; opacity: 1;" transform=" matrix(1 0 0 1 0 0) " stroke-linecap="round" />
</g>
</svg>
